<svg xmlns="http://www.w3.org/2000/svg" width="145" height="145" fill="none"><path fill="#fff" d="M18.125 12.083C18.125 5.41 23.535 0 30.208 0h61.454c3.204 0 6.278 1.273 8.544 3.54l23.13 23.13a12.084 12.084 0 0 1 3.539 8.543v97.704c0 6.673-5.41 12.083-12.083 12.083H30.208c-6.673 0-12.083-5.41-12.083-12.083V12.083Z"/><path fill="#D7D7D7" fill-rule="evenodd" d="M30.208 0c-6.673 0-12.083 5.41-12.083 12.083v120.834c0 6.673 5.41 12.083 12.083 12.083h84.584c6.673 0 12.083-5.41 12.083-12.083V35.213c0-3.204-1.273-6.278-3.539-8.544l-23.13-23.13A12.084 12.084 0 0 0 91.662 0H30.208Z" clip-rule="evenodd"/><path fill="#fff" fill-rule="evenodd" d="M91.662 3.02H30.208a9.062 9.062 0 0 0-9.062 9.063v120.833a9.063 9.063 0 0 0 9.062 9.063h84.584a9.063 9.063 0 0 0 9.062-9.063V35.213a9.065 9.065 0 0 0-2.654-6.408L98.07 5.675a9.063 9.063 0 0 0-6.408-2.654Z" clip-rule="evenodd"/><path fill="#D7D7D7" d="M96.667 1.086a12.081 12.081 0 0 1 3.539 2.454l23.13 23.13a12.089 12.089 0 0 1 2.454 3.539h-20.061a9.062 9.062 0 0 1-9.062-9.063V1.086Z"/><path fill="#9F9F9F" d="M64.003 129.895h-3.021l6.766-14.838h-8.216v-2.49h11.334v1.958l-6.863 15.37ZM85.392 129.895H72.487v-2.151l9.28-12.639h-9.015v-2.538h12.615v2.175l-9.304 12.64h9.329v2.513ZM42.292 20.542a2.417 2.417 0 0 1 2.416-2.417h7.25a2.417 2.417 0 0 1 2.417 2.417v1.208a2.417 2.417 0 0 1-2.417 2.417h-7.25a2.417 2.417 0 0 1-2.416-2.417v-1.208ZM54.375 14.5a2.417 2.417 0 0 1 2.417-2.416h7.25a2.417 2.417 0 0 1 2.416 2.416v1.209a2.417 2.417 0 0 1-2.416 2.416h-7.25a2.417 2.417 0 0 1-2.417-2.416V14.5ZM42.292 8.459a2.417 2.417 0 0 1 2.416-2.417h7.25a2.417 2.417 0 0 1 2.417 2.417v1.208a2.417 2.417 0 0 1-2.417 2.417h-7.25a2.417 2.417 0 0 1-2.416-2.417V8.459ZM54.375 26.584a2.417 2.417 0 0 1 2.417-2.417h7.25a2.417 2.417 0 0 1 2.416 2.417v1.208a2.417 2.417 0 0 1-2.416 2.417h-7.25a2.417 2.417 0 0 1-2.417-2.417v-1.208ZM42.292 32.625a2.417 2.417 0 0 1 2.416-2.416h7.25a2.417 2.417 0 0 1 2.417 2.416v1.209a2.417 2.417 0 0 1-2.417 2.416h-7.25a2.417 2.417 0 0 1-2.416-2.416v-1.209ZM42.292 44.709a2.417 2.417 0 0 1 2.416-2.417h7.25a2.417 2.417 0 0 1 2.417 2.417v1.208a2.417 2.417 0 0 1-2.417 2.417h-7.25a2.417 2.417 0 0 1-2.416-2.417v-1.208ZM42.292 56.792a2.417 2.417 0 0 1 2.416-2.417h7.25a2.417 2.417 0 0 1 2.417 2.417V58a2.417 2.417 0 0 1-2.417 2.417h-7.25A2.417 2.417 0 0 1 42.292 58v-1.208ZM54.375 38.667a2.417 2.417 0 0 1 2.417-2.417h7.25a2.417 2.417 0 0 1 2.416 2.417v1.208a2.417 2.417 0 0 1-2.416 2.417h-7.25a2.417 2.417 0 0 1-2.417-2.417v-1.208ZM54.375 50.75a2.417 2.417 0 0 1 2.417-2.416h7.25a2.417 2.417 0 0 1 2.416 2.416v1.209a2.417 2.417 0 0 1-2.416 2.416h-7.25a2.417 2.417 0 0 1-2.417-2.416V50.75Z"/><path fill="#9F9F9F" fill-rule="evenodd" d="M46.823 63.438a4.531 4.531 0 0 0-4.531 4.531v21.146a4.531 4.531 0 0 0 4.531 4.531h15.104a4.531 4.531 0 0 0 4.531-4.531V67.969a4.531 4.531 0 0 0-4.53-4.531H46.822Zm3.927 6.041a2.417 2.417 0 0 0-2.417 2.417v1.209a2.417 2.417 0 0 0 2.417 2.416H58a2.417 2.417 0 0 0 2.417-2.416v-1.209A2.417 2.417 0 0 0 58 69.48h-7.25Z" clip-rule="evenodd"/></svg>