<svg xmlns="http://www.w3.org/2000/svg" width="145" height="145" fill="none"><path fill="#fff" d="M18.125 12.083C18.125 5.41 23.535 0 30.208 0h61.454c3.204 0 6.278 1.273 8.544 3.54l23.13 23.13a12.084 12.084 0 0 1 3.539 8.543v97.704c0 6.673-5.41 12.083-12.083 12.083H30.208c-6.673 0-12.083-5.41-12.083-12.083V12.083Z"/><path fill="#D7D7D7" fill-rule="evenodd" d="M30.208 0c-6.673 0-12.083 5.41-12.083 12.083v120.834c0 6.673 5.41 12.083 12.083 12.083h84.584c6.673 0 12.083-5.41 12.083-12.083V35.213c0-3.204-1.273-6.278-3.539-8.544l-23.13-23.13A12.084 12.084 0 0 0 91.662 0H30.208Z" clip-rule="evenodd"/><path fill="#fff" fill-rule="evenodd" d="M91.662 3.021H30.208a9.062 9.062 0 0 0-9.062 9.063v120.833a9.062 9.062 0 0 0 9.062 9.062h84.584a9.062 9.062 0 0 0 9.062-9.062V35.214a9.065 9.065 0 0 0-2.654-6.409L98.07 5.675a9.063 9.063 0 0 0-6.408-2.654Z" clip-rule="evenodd"/><path fill="#D7D7D7" d="M96.667 1.085a12.081 12.081 0 0 1 3.539 2.454l23.13 23.13a12.09 12.09 0 0 1 2.454 3.54h-20.061a9.062 9.062 0 0 1-9.062-9.063V1.086Z"/><path fill="#4F86D9" fill-rule="evenodd" d="M93.896 48.334H51.103c-4.114 0-5.606.428-7.11 1.232a8.387 8.387 0 0 0-3.49 3.49c-.804 1.504-1.232 2.996-1.232 7.11v42.793c0 4.115.428 5.607 1.233 7.111a8.386 8.386 0 0 0 3.489 3.489c1.504.804 2.996 1.233 7.11 1.233h42.793c4.115 0 5.607-.429 7.111-1.233a8.383 8.383 0 0 0 3.489-3.489c.805-1.504 1.233-2.996 1.233-7.111V60.166c0-4.114-.428-5.606-1.233-7.11a8.385 8.385 0 0 0-3.489-3.49c-1.504-.804-2.996-1.233-7.11-1.233ZM78.268 96.666h7.908l6.429-30.323h-5.371L82.285 89.9l-6.428-23.557h-6.09l-6.47 23.853-4.737-23.853h-6.175l6.428 30.323h7.91l5.75-21.61 5.795 21.61Z" clip-rule="evenodd"/></svg>