<svg xmlns="http://www.w3.org/2000/svg" width="145" height="145" fill="none"><path fill="#fff" d="M18.125 12.083C18.125 5.41 23.535 0 30.208 0h61.454c3.204 0 6.278 1.273 8.544 3.54l23.13 23.13a12.084 12.084 0 0 1 3.539 8.543v97.704c0 6.673-5.41 12.083-12.083 12.083H30.208c-6.673 0-12.083-5.41-12.083-12.083V12.083Z"/><path fill="#D7D7D7" fill-rule="evenodd" d="M30.208 0c-6.673 0-12.083 5.41-12.083 12.083v120.834c0 6.673 5.41 12.083 12.083 12.083h84.584c6.673 0 12.083-5.41 12.083-12.083V35.213c0-3.204-1.273-6.278-3.539-8.544l-23.13-23.13A12.084 12.084 0 0 0 91.662 0H30.208Z" clip-rule="evenodd"/><path fill="#fff" fill-rule="evenodd" d="M91.662 3.02H30.208a9.062 9.062 0 0 0-9.062 9.063v120.833a9.063 9.063 0 0 0 9.062 9.063h84.584a9.063 9.063 0 0 0 9.062-9.063V35.213a9.065 9.065 0 0 0-2.654-6.408L98.07 5.675a9.063 9.063 0 0 0-6.408-2.654Z" clip-rule="evenodd"/><path fill="#D7D7D7" d="M96.667 1.086a12.084 12.084 0 0 1 3.539 2.454l23.13 23.13a12.089 12.089 0 0 1 2.454 3.539h-20.061a9.062 9.062 0 0 1-9.062-9.063V1.086Z"/><path fill="#9F9F9F" d="M52.07 112.567h11.165v2.538h-8.24v4.567h6.984v2.514h-6.984v5.196h8.361v2.513H52.07v-17.328ZM72.334 123.032l-4.374 6.863h-2.972l5.824-8.893-5.413-8.435h3.407l4.036 6.405 3.963-6.405h2.997l-5.438 8.386 5.776 8.942h-3.359l-4.447-6.863ZM82.113 112.567h11.165v2.538h-8.24v4.567h6.984v2.514h-6.984v5.196h8.361v2.513H82.113v-17.328Z"/><path fill="#9F9F9F" fill-rule="evenodd" d="M93.027 48.334H51.973c-3.366 0-4.587.35-5.818 1.009a6.861 6.861 0 0 0-2.855 2.854c-.658 1.231-1.008 2.452-1.008 5.818v28.971c0 3.366.35 4.587 1.008 5.818a6.861 6.861 0 0 0 2.855 2.855c1.23.658 2.452 1.008 5.818 1.008h41.054c3.367 0 4.587-.35 5.818-1.008a6.86 6.86 0 0 0 2.855-2.855c.658-1.23 1.008-2.452 1.008-5.818v-28.97c0-3.367-.35-4.588-1.008-5.819a6.86 6.86 0 0 0-2.855-2.854c-1.23-.659-2.451-1.009-5.818-1.009ZM48.333 86.986V66.459h48.334v20.527c0 1.288-.058 2.095-.148 2.564-.036.184-.05.225-.147.405a.83.83 0 0 1-.376.376c-.18.096-.22.111-.405.147-.469.09-1.276.148-2.564.148H51.973c-1.288 0-2.095-.058-2.564-.148a1.066 1.066 0 0 1-.404-.147.829.829 0 0 1-.377-.376 1.064 1.064 0 0 1-.147-.405c-.09-.469-.148-1.276-.148-2.564Zm30.209-29.59a3.02 3.02 0 1 1-6.042 0 3.02 3.02 0 0 1 6.042 0Zm6.041 3.021a3.02 3.02 0 1 0 0-6.041 3.02 3.02 0 0 0 0 6.041Zm9.063 0a3.02 3.02 0 1 0 0-6.041 3.02 3.02 0 0 0 0 6.041Z" clip-rule="evenodd"/></svg>