<svg xmlns="http://www.w3.org/2000/svg" width="145" height="145" fill="none"><path fill="#fff" d="M18.125 12.083C18.125 5.41 23.535 0 30.208 0h61.454c3.204 0 6.278 1.273 8.544 3.54l23.13 23.13a12.084 12.084 0 0 1 3.539 8.543v97.704c0 6.673-5.41 12.083-12.083 12.083H30.208c-6.673 0-12.083-5.41-12.083-12.083V12.083Z"/><path fill="#D7D7D7" fill-rule="evenodd" d="M30.208 0c-6.673 0-12.083 5.41-12.083 12.083v120.834c0 6.673 5.41 12.083 12.083 12.083h84.584c6.673 0 12.083-5.41 12.083-12.083V35.213c0-3.204-1.273-6.278-3.539-8.544l-23.13-23.13A12.084 12.084 0 0 0 91.662 0H30.208Z" clip-rule="evenodd"/><path fill="#fff" fill-rule="evenodd" d="M91.662 3.02H30.208a9.062 9.062 0 0 0-9.062 9.063v120.833a9.063 9.063 0 0 0 9.062 9.063h84.584a9.063 9.063 0 0 0 9.062-9.063V35.213a9.065 9.065 0 0 0-2.654-6.408L98.07 5.675a9.063 9.063 0 0 0-6.408-2.654Z" clip-rule="evenodd"/><path fill="#D7D7D7" d="M96.667 1.086a12.081 12.081 0 0 1 3.539 2.454l23.13 23.13a12.089 12.089 0 0 1 2.454 3.539h-20.061a9.062 9.062 0 0 1-9.062-9.063V1.086Z"/></svg>