<svg xmlns="http://www.w3.org/2000/svg" width="145" height="145" fill="none"><path fill="#fff" d="M18.125 12.083C18.125 5.41 23.535 0 30.208 0h61.454c3.204 0 6.278 1.273 8.544 3.54l23.13 23.13a12.084 12.084 0 0 1 3.539 8.543v97.704c0 6.673-5.41 12.083-12.083 12.083H30.208c-6.673 0-12.083-5.41-12.083-12.083V12.083Z"/><path fill="#D7D7D7" fill-rule="evenodd" d="M30.208 0c-6.673 0-12.083 5.41-12.083 12.083v120.834c0 6.673 5.41 12.083 12.083 12.083h84.584c6.673 0 12.083-5.41 12.083-12.083V35.213c0-3.204-1.273-6.278-3.539-8.544l-23.13-23.13A12.084 12.084 0 0 0 91.662 0H30.208Z" clip-rule="evenodd"/><path fill="#fff" fill-rule="evenodd" d="M91.662 3.021H30.208a9.062 9.062 0 0 0-9.062 9.063v120.833a9.062 9.062 0 0 0 9.062 9.062h84.584a9.062 9.062 0 0 0 9.062-9.062V35.214a9.065 9.065 0 0 0-2.654-6.409L98.07 5.675a9.063 9.063 0 0 0-6.408-2.654Z" clip-rule="evenodd"/><path fill="#D7D7D7" d="M96.667 1.085a12.081 12.081 0 0 1 3.539 2.454l23.13 23.13a12.09 12.09 0 0 1 2.454 3.54h-20.061a9.062 9.062 0 0 1-9.062-9.063V1.086Z"/><path fill="#F45555" fill-rule="evenodd" d="M93.896 48.334H51.103c-4.114 0-5.606.428-7.11 1.232a8.387 8.387 0 0 0-3.49 3.49c-.804 1.504-1.232 2.996-1.232 7.11v42.793c0 4.115.428 5.607 1.233 7.111a8.386 8.386 0 0 0 3.489 3.489c1.504.804 2.996 1.233 7.11 1.233h42.793c4.115 0 5.607-.429 7.111-1.233a8.383 8.383 0 0 0 3.489-3.489c.805-1.504 1.233-2.996 1.233-7.111V60.166c0-4.114-.428-5.606-1.233-7.11a8.385 8.385 0 0 0-3.489-3.49c-1.504-.804-2.996-1.233-7.11-1.233ZM48.333 72.5h6.312c2.44 0 4.323.447 5.649 1.34 1.343.893 2.015 2.334 2.015 4.322 0 1.062-.186 1.98-.557 2.756a4.92 4.92 0 0 1-1.538 1.921c-.672.489-1.485.851-2.44 1.087-.954.236-2.015.354-3.182.354h-2.466v6.345h-3.793V72.5Zm3.793 3.034v5.763h2.466c1.238 0 2.192-.219 2.864-.657.69-.455 1.034-1.23 1.034-2.326 0-.96-.327-1.66-.98-2.098-.637-.455-1.592-.682-2.865-.682h-2.52ZM64.96 72.5h6.47c1.397 0 2.697.143 3.899.43 1.22.286 2.272.758 3.156 1.415.901.658 1.6 1.526 2.095 2.604.512 1.079.769 2.41.769 3.994 0 1.601-.257 3.008-.77 4.222-.512 1.196-1.22 2.199-2.12 3.008-.903.809-1.98 1.424-3.236 1.845-1.238.405-2.59.607-4.058.607H64.96V72.5Zm3.792 3.034v12.083h2.599c.902 0 1.724-.127 2.466-.38a4.955 4.955 0 0 0 1.91-1.162c.53-.54.945-1.214 1.246-2.023.3-.825.45-1.803.45-2.932 0-1.095-.15-2.005-.45-2.73-.283-.725-.69-1.298-1.22-1.719a4.466 4.466 0 0 0-1.83-.885 9.938 9.938 0 0 0-2.307-.252h-2.864ZM96.667 72.5H84.176v18.125h3.792v-7.33h7.373v-3.01h-7.373v-4.751h8.699V72.5Z" clip-rule="evenodd"/></svg>