<svg xmlns="http://www.w3.org/2000/svg" width="145" height="145" fill="none"><path fill="#fff" d="M18.125 12.083C18.125 5.41 23.535 0 30.208 0h61.454c3.204 0 6.278 1.273 8.544 3.54l23.13 23.13a12.084 12.084 0 0 1 3.539 8.543v97.704c0 6.673-5.41 12.083-12.083 12.083H30.208c-6.673 0-12.083-5.41-12.083-12.083V12.083Z"/><path fill="#D7D7D7" fill-rule="evenodd" d="M30.208 0c-6.673 0-12.083 5.41-12.083 12.083v120.834c0 6.673 5.41 12.083 12.083 12.083h84.584c6.673 0 12.083-5.41 12.083-12.083V35.213c0-3.204-1.273-6.278-3.539-8.544l-23.13-23.13A12.084 12.084 0 0 0 91.662 0H30.208Z" clip-rule="evenodd"/><path fill="#fff" fill-rule="evenodd" d="M91.662 3.02H30.208a9.062 9.062 0 0 0-9.062 9.063v120.833a9.063 9.063 0 0 0 9.062 9.063h84.584a9.063 9.063 0 0 0 9.062-9.063V35.213a9.065 9.065 0 0 0-2.654-6.408L98.07 5.675a9.062 9.062 0 0 0-6.408-2.654Z" clip-rule="evenodd"/><path fill="#D7D7D7" d="M96.667 1.086a12.084 12.084 0 0 1 3.539 2.454l23.13 23.13a12.089 12.089 0 0 1 2.454 3.539h-20.061a9.062 9.062 0 0 1-9.062-9.063V1.086Z"/><path fill="#9F9F9F" d="M42.292 20.542a2.417 2.417 0 0 1 2.416-2.417h7.25a2.417 2.417 0 0 1 2.417 2.417v1.208a2.417 2.417 0 0 1-2.417 2.417h-7.25a2.417 2.417 0 0 1-2.416-2.417v-1.208ZM54.375 14.5a2.417 2.417 0 0 1 2.417-2.416h7.25a2.417 2.417 0 0 1 2.416 2.416v1.209a2.417 2.417 0 0 1-2.416 2.416h-7.25a2.417 2.417 0 0 1-2.417-2.416V14.5ZM42.292 8.459a2.417 2.417 0 0 1 2.416-2.417h7.25a2.417 2.417 0 0 1 2.417 2.417v1.208a2.417 2.417 0 0 1-2.417 2.417h-7.25a2.417 2.417 0 0 1-2.416-2.417V8.459ZM54.375 26.584a2.417 2.417 0 0 1 2.417-2.417h7.25a2.417 2.417 0 0 1 2.416 2.417v1.208a2.417 2.417 0 0 1-2.416 2.417h-7.25a2.417 2.417 0 0 1-2.417-2.417v-1.208ZM42.292 32.625a2.417 2.417 0 0 1 2.416-2.416h7.25a2.417 2.417 0 0 1 2.417 2.416v1.209a2.417 2.417 0 0 1-2.417 2.416h-7.25a2.417 2.417 0 0 1-2.416-2.416v-1.209ZM42.292 44.709a2.417 2.417 0 0 1 2.416-2.417h7.25a2.417 2.417 0 0 1 2.417 2.417v1.208a2.417 2.417 0 0 1-2.417 2.417h-7.25a2.417 2.417 0 0 1-2.416-2.417v-1.208ZM42.292 56.792a2.417 2.417 0 0 1 2.416-2.417h7.25a2.417 2.417 0 0 1 2.417 2.417V58a2.417 2.417 0 0 1-2.417 2.417h-7.25A2.417 2.417 0 0 1 42.292 58v-1.208ZM54.375 38.667a2.417 2.417 0 0 1 2.417-2.417h7.25a2.417 2.417 0 0 1 2.416 2.417v1.208a2.417 2.417 0 0 1-2.416 2.417h-7.25a2.417 2.417 0 0 1-2.417-2.417v-1.208ZM54.375 50.75a2.417 2.417 0 0 1 2.417-2.416h7.25a2.417 2.417 0 0 1 2.416 2.416v1.209a2.417 2.417 0 0 1-2.416 2.416h-7.25a2.417 2.417 0 0 1-2.417-2.416V50.75Z"/><path fill="#9F9F9F" fill-rule="evenodd" d="M46.823 63.438a4.531 4.531 0 0 0-4.531 4.531v21.146a4.531 4.531 0 0 0 4.53 4.531h15.105a4.531 4.531 0 0 0 4.531-4.531V67.969a4.531 4.531 0 0 0-4.53-4.531H46.822Zm3.927 6.041a2.417 2.417 0 0 0-2.417 2.417v1.209a2.417 2.417 0 0 0 2.417 2.416H58a2.417 2.417 0 0 0 2.417-2.416v-1.209A2.417 2.417 0 0 0 58 69.48h-7.25Z" clip-rule="evenodd"/><path fill="#9F9F9F" d="M50.053 112.567h5.969c2.191 0 3.842.411 4.954 1.233 1.112.822 1.668 2.135 1.668 3.939 0 1.45-.339 2.57-1.015 3.359-.661.774-1.563 1.313-2.707 1.619l4.47 7.178h-3.359l-4.229-6.839h-2.827v6.839h-2.924v-17.328Zm2.924 2.538v5.51h2.948c.58 0 1.096-.048 1.547-.145.467-.097.862-.258 1.184-.483.322-.226.564-.524.725-.895.177-.37.266-.829.266-1.377 0-.967-.314-1.643-.943-2.03-.612-.387-1.506-.58-2.682-.58h-3.045ZM70.505 112.567h3.842l6.139 17.328h-3.021l-1.595-4.543H68.57l-1.594 4.543H64.39l6.114-17.328Zm4.47 10.271-2.754-7.806-2.755 7.806h5.51ZM82.739 112.567h5.97c2.19 0 3.842.411 4.953 1.233 1.112.822 1.668 2.135 1.668 3.939 0 1.45-.338 2.57-1.015 3.359-.66.774-1.563 1.313-2.707 1.619l4.471 7.178h-3.36l-4.228-6.839h-2.828v6.839H82.74v-17.328Zm2.924 2.538v5.51h2.949c.58 0 1.095-.048 1.546-.145.467-.097.862-.258 1.184-.483.323-.226.564-.524.725-.895.178-.37.266-.829.266-1.377 0-.967-.314-1.643-.942-2.03-.613-.387-1.507-.58-2.683-.58h-3.045Z"/></svg>