<svg xmlns="http://www.w3.org/2000/svg" width="145" height="145" fill="none"><path fill="#fff" d="M18.125 12.083C18.125 5.41 23.535 0 30.208 0h61.454c3.204 0 6.278 1.273 8.544 3.54l23.13 23.13a12.084 12.084 0 0 1 3.539 8.543v97.704c0 6.673-5.41 12.083-12.083 12.083H30.208c-6.673 0-12.083-5.41-12.083-12.083V12.083Z"/><path fill="#D7D7D7" fill-rule="evenodd" d="M30.208 0c-6.673 0-12.083 5.41-12.083 12.083v120.834c0 6.673 5.41 12.083 12.083 12.083h84.584c6.673 0 12.083-5.41 12.083-12.083V35.213c0-3.204-1.273-6.278-3.539-8.544l-23.13-23.13A12.084 12.084 0 0 0 91.662 0H30.208Z" clip-rule="evenodd"/><path fill="#fff" fill-rule="evenodd" d="M91.662 3.02H30.208a9.062 9.062 0 0 0-9.062 9.062v120.833a9.063 9.063 0 0 0 9.062 9.063h84.584a9.063 9.063 0 0 0 9.062-9.063V35.212a9.064 9.064 0 0 0-2.654-6.408L98.07 5.674a9.062 9.062 0 0 0-6.408-2.654Z" clip-rule="evenodd"/><path fill="#D7D7D7" d="M96.667 1.087a12.084 12.084 0 0 1 3.539 2.454l23.13 23.13a12.089 12.089 0 0 1 2.454 3.539h-20.061a9.062 9.062 0 0 1-9.062-9.063V1.087Z"/><path fill="#9F9F9F" d="M68.08 129.897H55.177v-2.151l9.28-12.639h-9.014v-2.538h12.615v2.175l-9.304 12.64h9.328v2.513ZM73.957 112.569v17.328h-2.924v-17.328h2.924ZM77.665 112.569h5.655c2.094 0 3.722.419 4.882 1.257 1.16.838 1.74 2.167 1.74 3.988 0 .998-.161 1.86-.484 2.585a4.615 4.615 0 0 1-1.377 1.789c-.58.467-1.29.813-2.127 1.039-.822.209-1.74.314-2.755.314h-2.61v6.356h-2.924v-17.328Zm2.924 2.538v5.921h2.61c1.176 0 2.103-.234 2.78-.701.676-.467 1.014-1.273 1.014-2.417 0-.983-.314-1.691-.942-2.126-.612-.452-1.523-.677-2.731-.677h-2.73ZM42.292 20.543a2.417 2.417 0 0 1 2.416-2.417h7.25a2.417 2.417 0 0 1 2.417 2.417v1.208a2.417 2.417 0 0 1-2.417 2.417h-7.25a2.417 2.417 0 0 1-2.416-2.417v-1.208ZM54.375 14.501a2.417 2.417 0 0 1 2.417-2.416h7.25a2.417 2.417 0 0 1 2.416 2.416v1.209a2.417 2.417 0 0 1-2.416 2.416h-7.25a2.417 2.417 0 0 1-2.417-2.416V14.5ZM42.292 8.46a2.417 2.417 0 0 1 2.416-2.417h7.25a2.417 2.417 0 0 1 2.417 2.417v1.208a2.417 2.417 0 0 1-2.417 2.417h-7.25a2.417 2.417 0 0 1-2.416-2.417V8.46ZM54.375 26.585a2.417 2.417 0 0 1 2.417-2.417h7.25a2.417 2.417 0 0 1 2.416 2.417v1.208a2.417 2.417 0 0 1-2.416 2.417h-7.25a2.417 2.417 0 0 1-2.417-2.417v-1.208ZM42.292 32.626a2.417 2.417 0 0 1 2.416-2.416h7.25a2.417 2.417 0 0 1 2.417 2.416v1.209a2.417 2.417 0 0 1-2.417 2.416h-7.25a2.417 2.417 0 0 1-2.416-2.416v-1.209ZM42.292 44.71a2.417 2.417 0 0 1 2.416-2.417h7.25a2.417 2.417 0 0 1 2.417 2.417v1.208a2.417 2.417 0 0 1-2.417 2.417h-7.25a2.417 2.417 0 0 1-2.416-2.417V44.71ZM42.292 56.793a2.417 2.417 0 0 1 2.416-2.417h7.25a2.417 2.417 0 0 1 2.417 2.417v1.208a2.417 2.417 0 0 1-2.417 2.417h-7.25a2.417 2.417 0 0 1-2.416-2.417v-1.208ZM54.375 38.668a2.417 2.417 0 0 1 2.417-2.417h7.25a2.417 2.417 0 0 1 2.416 2.417v1.208a2.417 2.417 0 0 1-2.416 2.417h-7.25a2.417 2.417 0 0 1-2.417-2.417v-1.208ZM54.375 50.751a2.417 2.417 0 0 1 2.417-2.416h7.25a2.417 2.417 0 0 1 2.416 2.416v1.209a2.417 2.417 0 0 1-2.416 2.416h-7.25a2.417 2.417 0 0 1-2.417-2.416V50.75Z"/><path fill="#9F9F9F" fill-rule="evenodd" d="M46.823 63.439a4.531 4.531 0 0 0-4.531 4.531v21.146a4.531 4.531 0 0 0 4.53 4.531h15.105a4.531 4.531 0 0 0 4.531-4.531V67.97a4.531 4.531 0 0 0-4.53-4.531H46.822Zm3.927 6.042a2.417 2.417 0 0 0-2.417 2.416v1.209a2.417 2.417 0 0 0 2.417 2.416H58a2.417 2.417 0 0 0 2.417-2.416v-1.209A2.417 2.417 0 0 0 58 69.481h-7.25Z" clip-rule="evenodd"/></svg>